<?xml version="1.0" encoding="UTF-8"?>
<svg version="1.1" viewBox="0 0 1024 1536" width="1024" height="1536" xmlns="http://www.w3.org/2000/svg">
<path transform="translate(444,833)" d="m0 0h12l13 3 8 6 3 5 1 4v18l-4 35-4 44-11 66-5 22-7 14-8 7-9 3h-7l-10-3-7-6-5-12-13-58-9-55-3-28v-37l2-13 3-6 5-4 11-3 7-1zm3 6-31 1-20 3-8 3-3 10-1 26 2 30 8 54 6 29 10 43 4 9 5 4 6 2 11-1 6-4 6-7 5-15 6-31 8-46 6-58 3-22v-18l-3-5-5-4-6-2-7-1z" fill="#FE1913"/>
<path transform="translate(514,639)" d="m0 0h22l33 2 13 2 10 4 5 5 6 9 3 10 1 16-3 16-5 12-9 13-9 11-12 13-11 9-15 10-13 6-10 3-13 1-14-2-13-5-16-8-13-9-11-9-10-10-11-14-7-14-3-14v-11l3-14 6-12 8-8 12-6 10-2 23-2zm2 5-64 4-16 3-9 6-6 8-4 10-1 4v19l4 13 6 11 9 11 14 14 15 11 18 10 12 5 9 2h13l12-3 17-9 12-9 10-9 10-10 10-13 8-14 4-12 1-6v-13l-3-12-6-10-9-6-9-3-17-2z" fill="#FE1913"/>
<path transform="translate(591,833)" d="m0 0h18l15 3 10 5 5 6 2 8v40l-9 75-5 45-4 19-5 12-5 7-6 4-9 2h-8l-8-3-5-4-5-10-6-21-11-50-7-37-3-31-1-22v-29l3-10 6-5 7-2 9-1zm-2 6-21 1-13 3-5 5-1 4v22l3 42 4 27 10 50 10 42 4 10 5 5 2 1h12l8-3 6-7 5-13 4-20 11-87 3-23 1-12v-31l-2-7-5-4-9-3-14-2z" fill="#FE1913"/>
<path transform="translate(424,1118)" d="m0 0 11 1 4 4 2 5 1 6v119l-3 71-3 6-5 3-7-1-4-6-7-32-8-47-4-37-1-13v-26l3-21 5-18 5-9 6-4zm2 5-7 3-5 6-4 13-3 17-1 11v27l4 39 6 35 9 49 2 3 5-1 2-6 2-53 1-72v-65l-2-5-2-1z" fill="#FE1913"/>
<path transform="translate(533,525)" d="m0 0h13l24 3 11 4 4 8 1 7v33l-4 20-7 8-16 6-21 6-17 3h-26l-22-4-16-5-9-5-5-6-3-10-3-33 1-14 3-7 5-5 13-4 18-3 16-1zm2 5-53 2-18 2-15 4-4 4-1 3v17l4 33 3 6 6 5 12 5 17 4 7 1h26l24-4 21-5 9-4 3-4 4-22v-31l-2-9-4-3-18-3z" fill="#FE1913"/>
<path transform="translate(588,1118)" d="m0 0h9l10 3 7 6 5 11 4 18 1 8v37l-5 53-5 33-7 35-4 8-5 3-7-1-4-4-2-6-3-60-1-27v-52l2-39v-19l2-5zm0 6-1 2-1 41v30l2 63 1 17 1 39 2 10 3 1 5-3 3-8 8-41 5-38 3-29 1-15v-21l-2-18-4-16-5-8-5-4-7-2z" fill="#FE1913"/>
<path transform="translate(500,337)" d="m0 0 24 1v27l-2 129-1 19-2 1-16 1-2-5-3-135v-37zm2 5v22l3 143 1 3 11-1 1-48 1-117-9-2z" fill="#FE1913"/>
<path transform="translate(530,268)" d="m0 0h27l4 6 3 11 1 6v8l-6 4-18 6-17 3-11 1h-17l-19-3-19-6-3-2v-9l6-17 4-6 1-1zm-62 5-5 13-2 11 9 4 21 5 18 1 22-2 24-5 6-2-5-20-2-5z" fill="#FE1913"/>
<path transform="translate(501,84)" d="m0 0h21l9 2 8 6 8 9 8 17 6 19 1 12-8 3h-19l-13-3h-16l-18 3h-15l-13-2-3-3 1-8 7-20 9-17 9-10 8-5zm-2 5-12 6-7 7-9 17-6 19-1 8 9 2h10l24-4h14l19 4h9l10-1-4-10-8-24-5-10-9-10-9-4z" fill="#FE1913"/>
<path transform="translate(451,405)" d="m0 0 13 1 12 6 6 7 4 9v15l-4 10-7 8-7 5-7 2h-8l-9-3-9-7-6-12-1-11 3-14 5-8 6-5zm-3 7-9 8-5 10v13l5 10 9 6 2 1h12l8-4 7-8 3-9-1-11-4-8-8-6-5-2z" fill="#FE1913"/>
<path transform="translate(403,762)" d="m0 0h7l13 4 8 6 4 8 1 10-2 8-4 6-5 4-4 2-11 1-8-2-7-4-8-9-3-10 1-9 4-7 6-5zm0 5-6 3-4 5-2 5 1 9 4 8 8 6 3 1h10l6-3 4-5 1-3v-12l-5-8-7-5-4-1z" fill="#FE1913"/>
<path transform="translate(612,757)" d="m0 0h8l8 3 7 8 2 10-3 13-7 9-10 6-4 1h-8l-8-3-7-8-2-4v-13l5-10 3-1 2-4 7-5zm1 6-11 4-6 5-4 7v9l3 6 5 5 7 2 10-2 8-6 5-7 1-3v-8l-3-6-4-4z" fill="#FE1913"/>
<path transform="translate(593,1071)" d="m0 0h8l7 3 5 5 3 7v7l-4 9-7 6-4 2h-10l-7-4-6-8-1-3v-10l4-6 7-6zm0 7-6 3-4 8 3 9 5 4h8l8-6 2-3v-9l-4-5-2-1z" fill="#FE1913"/>
<path transform="translate(422,1072)" d="m0 0h12l6 4 5 6 1 3v12l-6 9-6 4-4 1h-7l-8-4-6-8-1-3v-10l4-8zm0 6-4 1-4 7-1 5 3 8 5 4 6 1 7-3 6-7v-8l-4-6-4-2z" fill="#FE1913"/>
<path transform="translate(686,571)" d="m0 0 9 1 9 6 4 5 1 2v11l-4 7-6 5-8 3-9-1-8-6-4-8v-12l6-8 6-4zm-1 6-9 6-1 2v10l4 6 5 3h8l8-5 4-6v-6l-4-6-8-4z" fill="#FE1913"/>
<path transform="translate(331,572)" d="m0 0h12l6 4 4 5 1 3v11l-4 7-6 5-5 2h-8l-7-4-6-8-1-8 4-10 7-6zm4 5-6 3-6 8v6l4 6 3 2h9l7-5 3-6-1-8-5-5z" fill="#FE1913"/>
<path transform="translate(363,359)" d="m0 0h9l6 3 6 7 2 8-3 9-5 5-6 4h-11l-7-5-4-9v-8l4-8 5-4zm0 6-5 5-2 3v8l3 5 3 2h9l7-5 2-4v-6l-4-5-7-3z" fill="#FE1913"/>
<path transform="translate(650,359)" d="m0 0h10l6 3 6 7 1 2v12l-4 7-6 5-3 1h-9l-8-5-5-8v-12l4-6zm1 6-6 5-2 5 1 8 5 5 2 1h8l6-4 3-5v-7l-4-6-4-2z" fill="#FE1913"/>
<path transform="translate(587,1372)" d="m0 0h9l6 3 4 6v9l-3 6-5 5-3 1h-8l-6-4-4-6-1-7 3-8 5-4zm-3 7-2 4v7l5 5h7l5-6v-7l-4-3z" fill="#FE1913"/>
<path transform="translate(301,788)" d="m0 0h12l6 4 3 8-2 9-4 6-5 3h-9l-6-5-3-8 2-10 3-5zm5 6-5 3-2 3 1 7 3 3h6l5-4 1-2v-6l-3-3z" fill="#FE1913"/>
<path transform="translate(430,1371)" d="m0 0 9 1 5 3 3 5v11l-5 8-4 4-3 1h-7l-7-6-3-6v-11l4-7zm-3 7-4 4v10l4 5 4 1 6-3 4-7v-6l-4-4z" fill="#FE1913"/>
<path transform="translate(509,163)" d="m0 0 20 2-1 6-8 16-6 10-5-1-9-16-6-10 1-5 2-1zm-10 5 2 5 9 18h2l10-20 1-3z" fill="#FE1913"/>
<path transform="translate(713,787)" d="m0 0h9l6 4 3 5v9l-4 8-6 4h-8l-6-4-3-6v-7l4-8zm2 5-5 5-1 7 3 5 7 1 6-5 1-6-3-5-3-2z" fill="#FE1913"/>
</svg>
