<?xml version="1.0" encoding="UTF-8"?>
<svg version="1.1" viewBox="0 0 808 2048" width="932" height="2360" xmlns="http://www.w3.org/2000/svg">
<path transform="translate(360,180)" d="m0 0h45l20 1 11 7 11 10 5 4 5 5 9 11 6 13 7 21 5 21 4 26 4 27 5 21 8 35 1 13v38l-2 14-6 21-2 4 16 4 13 4 21 11 10 7 8 7 9 11 11 15 6 9 6 13 6 23 6 38 1 9 3 54 4 52v22l1 9 1 24 4 16 4 12 3 8 6 26 2 17 3 40 2 23 2 47 2 22 1 41 3 21 4 25 2 23v18l-2 12-8 20-6 11-10 11-13 10-10 6-11 4h-5l-5-5-1-2v-9l5-13 9-9 8-6 6-8v-20l-2-4-3 1-5 15-7 13-3 4h-5l-5-6-1-6-1-30v-24l3-12 15-29 3-6 1-4v-17l-2-12-6-19-10-29-5-19-3-12-10-50-9-31-4-25-6-28-4-17-3-21-3-14-5-33-2-23-8 24-8 15-3 7-2 25v41l2 20 7 25 6 21 5 16 6 20 8 29 7 28 2 10 6 25 5 28 2 25v53l-2 28-4 31-3 63-5 39-2 19-5 33-2 20-5 32-3 22v30l2 22 3 20 4 16 6 37 1 11v45l-4 24-2 9-4 27-4 24-5 21-3 15-6 27-6 17-4 17v16l5 11 1 33 4 8 5 5 15 14 9 11 5 9 1 10-2 9-4 5-4 2-13 2-21 1-27-2-11-1-10-4-6-8-3-8-1-6v-23l1-8v-10l-5-15-1-10 4-12 2-21 1-19v-55l-6-23-6-17-6-21-6-35-1-16 6-90v-10l-3-11-4-26-5-11-7-20-5-27-3-36-5-32-4-46-3-51-3-32-1-54v-25h-7v24l-1 64-5 39-2 25-6 80-1 13v17l-4 18-5 21-5 16-4 15-1 62-3 66-4 45-4 21-7 29-3 20-4 24v39l5 21 4 15v13l-3 18 1 19 5 18 3 21v8l-3 8-5 5-6 4-16 4h-18l-36-1-15-3-9-6-5-8v-9l7-14 14-15 8-9 6-10v-16l6-22 2-13v-18l-5-25-4-15-9-30-6-26-7-40-3-22-3-25v-49l6-36 6-35 3-28 1-25-2-26-5-54-3-21-2-18-4-21-3-16-4-20-2-21-4-37v-52l1-39-2-11-1-11v-29l3-40 5-32 6-18 3-10 10-27 7-21 6-14 6-17 4-24 1-11 1-30v-31l-3-9-6-13-9-20-3 12-7 37-5 30-4 23-6 21-4 16-7 26-8 31-4 20-9 36-3 15-4 14-5 21-1 4-1 13v17l4 10 12 18 4 10 3 14 2 31 1 10v13l-4 10-4 4-9 1-3-3-3-7-4-22-4-6-5-2h-2v13l4 20 3 7 5 4 14 8 7 7 2 4v15l-3 8-3 3-5-1-10-5-17-12-14-10-8-9-9-19-7-22-4-17v-15l5-21 3-23 2-27 1-81 4-44 4-28 4-24 2-15 8-27 3-9 4-16 3-9 2-16 1-23 1-40 4-60 1-26 3-21 5-19 6-17 8-16 7-12 9-11 7-7 9-6 13-5 24-10 16-8h2l-6-14-5-17-2-12v-14l5-25 6-28 1-11 1-49 6-29 10-26 11-25 11-17 7-7 8-7 10-9zm6 7-8 3-9 7v2l-4 2-11 11-10 15-8 16-5 12-8 22-6 31-1 20-1 37-5 25-3 20v24l4 18 5 14-1 8-6 7-10 7-27 13-10 5-10 6-10 9-11 17-7 15-5 15-7 28-3 47-3 38-2 73-2 17-7 26-9 30-6 35-2 15-4 23-1 8-3 45-1 25-1 59-2 31-4 17-2 7v20l8 30 7 18 8 9 10 7 12 8 11 8 5 2 1-4v-9l-3-5-5-4-15-9-5-6-4-11-3-14v-20l2-4 2-1h12l7 7 5 15 3 17 4-1 2-4v-17l-2-20-1-16-3-15-4-8-10-14-5-10-2-8v-22l4-22 5-17 3-16 6-28 4-15 3-17 6-25 8-27 8-26 7-30 3-18 4-20 2-16 11-46 2-17 4 2 6 14 4 10 9 16 6 14 2 8v77l-2 21-7 21-7 18-7 19-5 14-11 30-6 24-3 28-3 29v131l4 40 1 17 8 39 4 16 4 26 3 19 2 20 4 42v53l-4 30-5 36-3 16-2 26v18l2 37 5 32 3 21 7 33 6 25 5 18 5 21 1 11v32l-4 16-3 11v15l-6 12-9 11-5 6-5 4-7 8-5 11 2 5 6 5 6 2h59l16-4 7-4 2-3v-12l-2-14-5-16-2-11v-14l2-17v-13l-2-9-4-13-3-19v-33l4-33 4-21 2-12 5-19 6-49 3-68 1-20 1-49 4-17 4-11 3-15 4-16 4-19 1-25 1-9 2-30 5-57 2-21 2-15 1-14 2-82 2-4 4-2h16l2 39 1 41 2 30 4 47 1 20 5 38 2 18 3 25 3 36 7 25 8 22 2 11 1 18v59l-2 36v26l4 29 7 27 10 32 2 14v42l-1 28-3 25-3 8v10l5 14v13l-1 7v22l3 12 7 6 7 2 26 2h25l12-1 6-3 2-3v-9l-7-12-13-15-10-8-6-9-2-7-1-32-5-11-1-13 2-16 9-31 4-22 8-38 2-10 2-17 5-27 4-29 1-12v-12l-2-31-4-25-5-21-4-30-1-15v-34l4-24 3-25 4-27 2-17 4-19 4-33 3-17 5-71 2-25v-72l-1-22-4-24-4-20-6-25-4-15-3-14-4-13-4-15-6-21-10-32-6-20-4-15-1-7-1-17v-22l2-27 2-15 10-21 4-8 12-29 1-4h3l3 13 6 33 2 15 5 24 3 22 5 29 5 21 3 17 5 20 5 17 6 28 3 16 6 25 6 21 5 15 5 19 2 12 1 7v19l-4 13-9 17-5 11-2 5-1 10 1 49 4-5 5-15 4-10 2-1h9l5 5 2 9v14l-2 9-7 10-15 14-4 10v4l10-3 12-8 12-11 8-9 8-18 5-17v-23l-6-40-4-19-1-31-2-37-2-46-3-38-1-27-4-22-4-17-9-23-2-8-1-19-1-41-4-33-3-35-2-34-4-35-5-27-7-19-9-14-11-14-10-11-11-7-21-10-15-6-12-8-4-5-1-7 7-26 2-12v-30l-3-18-6-25-5-19-4-18-2-24-6-31-7-27-6-14-11-12-7-7-14-10-15-5-5-1z" fill="#010101"/>
</svg>
