<?xml version="1.0" encoding="UTF-8"?>
<svg version="1.1" viewBox="0 0 1024 1536" width="1024" height="1536" xmlns="http://www.w3.org/2000/svg">
<path transform="translate(505,71)" d="m0 0h21l15 3 8 4 13 11 9 13 7 14 6 18 10 52 3 19 1 10v21l-3 23-6 28 1 6 5 5 14 9 16 8 24 10 9 6 14 13 7 10 8 13 7 16 6 25 3 27 3 43 1 54 2 17 5 21 9 34 5 29 2 18 7 102 1 18 4 21 1 9v36l-4 20-8 21-7 9-10 6-13 5-8-1-3-4 1-7 9-11 7-7 5-10 1-6v-12h-3l-3 9-4 13-5 8-5 1-4-4-2-6-2-26v-13l2-14 7-18 4-11v-10l-6-25-16-52-12-43-9-30-2-11-2-37-4-28-8-41-2-18-1-1-14 43-5 17-4 23-1 10v22l5 30 5 19 7 21 20 50 6 21 8 42 2 17v52l-1 38-2 34-5 43-5 24-7 32-9 33-4 22v19l3 21 6 24 4 10 2 9 1 15-2 21-12 58-8 45-8 40-2 13v21l1 27 2 9 7 12 10 15 8 14 1 9-3 5-3 2-5 1-14 1h-32l-9-2-8-5-5-6-3-9-1-7v-14l1-17v-25l2-25 2-17v-22l-4-31-9-60v-69l3-22v-13l-7-25-8-44-7-50-7-43-4-31-3-37v-81l-15 1-3 1-1 4-1 48-3 59-5 40-6 47-6 37-4 33-5 25-5 15v10l3 25v48l-3 32-5 33-5 29-2 18v28l5 23 1 8 1 25 2 15 1 19-2 12-4 8-6 7-8 4-14 2-40-1-8-3-5-5v-9l6-12 11-17 6-10 2-6 2-21 2-13-1-16-6-40-12-60-4-26-6-26-2-19 1-18 5-23 7-31 2-16v-9l-3-22-11-62-12-85-4-32-3-38-1-28 2-25 4-28 6-26 13-45 8-20 5-13 13-32 4-15 1-7v-42l-3-23-4-15-8-20-7-19-3-11-4 33-9 36-2 12-1 11v29l-2 15-11 42-16 50-8 28-7 25-1 13 5 14 5 12 2 11 1 18v26l-2 11-4 5-6-1-5-8-5-15-3-6-5-1-1 5v10l4 13 6 7 9 7 5 6 1 2v6l-4 4h-7l-11-6-10-8-8-8-8-14-4-14-1-6v-29l3-32 2-24 2-55 3-47 5-35 5-23 5-16 6-18 2-15 2-32 2-23 1-45 3-27 4-22 6-20 8-21 6-10 9-10 7-7 13-8 33-13 15-8 8-7 3-6-1-8-7-21-3-14v-26l3-26 9-40 6-19 5-17 7-13 12-16 5-6 9-6 15-5zm-1 4-17 5-12 6-10 11-10 15-6 12-14 50-5 22-3 27v20l3 16 8 24v10l-4 8-8 7-19 10-29 11-12 7-10 9-9 12-7 16-9 27-4 21-3 27-2 57-3 36-2 22-4 15-10 25-7 46-3 43-1 15-2 55-4 44-1 8v30l4 15 7 14 8 9 16 11 8 2 3-2-2-6-13-10-7-8-3-9-1-5v-13l3-6 1-1h7l5 6 8 22 3 2 2-4 1-8v-24l-1-19-3-13-7-16-1-4v-15l11-44 16-49 12-43 4-17 1-8 2-42 4-20 8-29 1-5 2-28v-28l-3-19-1-3h2l3 10 4 24 3 17 8 24 10 25 4 14 3 20 1 11v35l-3 19-7 19-9 19-11 28-7 21-11 40-4 20-4 34v37l4 54 4 28 6 36 5 37 11 61 3 19v28l-5 28-7 27-1 6v26l7 34 2 17 9 44 7 36 5 35v15l-2 11-2 22-8 16-14 22-3 6v5l3 3 13 2h38l10-3 7-6 4-8 2-10-1-19-2-16-1-24-3-18-3-16v-24l3-25 8-44 4-38 1-19v-25l-2-25v-21l5-20 4-26 4-36 6-37 9-70 2-25 2-39 1-47 2-11 4-3h21l1 5v73l3 43 4 30 9 56 6 42 7 38 7 25v21l-3 27v32l2 39 11 70 1 8v30l-3 30-2 47v16l3 12 5 6 10 4h33l17-2 5-3-3-9-11-19-10-16-3-11-1-25-1-10v-12l5-30 10-50 7-38 9-40v-25l-2-16-9-34-3-21v-27l6-31 8-44 4-15 7-46 6-45 1-45v-49l-3-23-7-36-6-20-13-37-10-25-8-24-4-20-2-15v-22l3-25 6-25 14-43 3-13 3-24 4-14 3-5 2-1-5 24 1 25 2 23 8 42 5 32 2 35 4 20 12 40 26 88 3 12v14l-5 13-6 13-2 11v25l2 18 2 4 4-5 6-19 4-6 2-1h6l2 2 1 4v11l-3 14-7 9-13 12-2 3 1 4 7-1 12-5 10-7 7-14 5-16 2-10 1-10v-24l-3-21-2-11-2-33-2-25-1-22-5-53-6-35-12-46-3-16-1-10-1-51-3-44-3-29-6-25-8-19-9-13-12-13-14-11-32-12-16-9-10-8-4-6-1-8 7-40 1-8v-29l-5-32-7-39-5-17-9-19-8-10-10-9-7-4-9-2z" fill="#010101"/>
</svg>
